<svg id="Layer_1" enable-background="new 0 0 510 510" viewBox="0 0 510 510" xmlns="http://www.w3.org/2000/svg"><g><g><g><path d="m352.955 429.934c6.298-3.819 13.606-6.967 25.657-6.967 30.621 0 30.621 20.328 61.241 20.328 30.621 0 30.621-20.328 61.241-20.328v76.907h-489.898v-76.907c30.617 0 30.617 20.328 61.234 20.328 30.618 0 30.618-20.328 61.237-20.328 12.058 0 19.367 3.153 25.668 6.975z" fill="#67ccd1"/></g><g><g><g><g><g><g><path d="m225.576 130.508-215.403 40.655v-143.628l215.403 40.655z" fill="#fdcb50"/></g><g><path d="m283.587 130.508 215.402 40.655v-143.628l-215.402 40.655z" fill="#fdcb50"/></g></g></g><g><g><g><path d="m225.58 68.19v62.32l-86.77 16.37c4.95-14.94 7.63-30.93 7.63-47.53s-2.68-32.59-7.63-47.53z" fill="#fd8f01"/></g><g><path d="m374.15 99.35c0 17.46 2.96 34.24 8.41 49.84l-98.97-18.68v-62.32l98.97-18.68c-5.45 15.6-8.41 32.38-8.41 49.84z" fill="#fd8f01"/></g></g></g><g><path d="m285.096 68.19h-62.031v-27.465c0-16.941 13.733-30.674 30.674-30.674h.683c16.941 0 30.674 13.733 30.674 30.674z" fill="#fdcb50"/></g></g></g></g></g><g><g><path d="m316.239 401.448-27.741-273.263h-66.766l-24.068 273.263z" fill="#fd6050"/></g><g><path d="m157.731 398.558h193.625v100.824h-193.625z" fill="#d2dcfd"/></g><g><path d="m274.51 499.38h-116.78v-100.82h69.88c-7.78 10.3-12.19 22.11-12.19 34.66 0 29.4 24.23 54.73 59.09 66.16z" fill="#93b2f4"/></g><g><path d="m223.144 66.165h67.613v66.368h-67.613z" fill="#fff"/></g></g></g><g><g><g><g><path d="m203.198 370.566c-3.341 0-6.607-1.674-8.501-4.721-2.917-4.69-1.478-10.856 3.212-13.772l98.709-61.374c4.69-2.917 10.855-1.479 13.772 3.212 2.916 4.69 1.479 10.856-3.212 13.772l-98.709 61.375c-1.643 1.021-3.468 1.508-5.271 1.508z" fill="#fff"/></g><g><path d="m211.02 294.396c-3.341 0-6.607-1.674-8.501-4.721-2.916-4.69-1.478-10.856 3.212-13.772l84.592-52.597c4.69-2.916 10.855-1.479 13.772 3.212 2.916 4.69 1.479 10.856-3.212 13.772l-84.592 52.597c-1.644 1.021-3.468 1.509-5.271 1.509z" fill="#fff"/></g><g><path d="m218.952 217.15c-3.341 0-6.607-1.674-8.501-4.721-2.917-4.69-1.478-10.856 3.212-13.773l70.276-43.695c4.69-2.916 10.856-1.479 13.772 3.212s1.479 10.857-3.212 13.773l-70.276 43.695c-1.643 1.022-3.468 1.509-5.271 1.509z" fill="#fff"/></g></g></g><g><g><g><g><path d="m500 181.16c2.31 0 4.56-.8 6.37-2.29 2.3-1.9 3.63-4.73 3.63-7.71v-143.62c0-2.99-1.33-5.81-3.63-7.71s-5.33-2.68-8.25-2.12l-200.58 38.41v-15.4c0-22.42-18.25-40.67-40.68-40.67h-.68c-22.43 0-40.67 18.25-40.67 40.67v15.39l-203.48-38.4c-2.93-.55-5.95.23-8.24 2.13s-3.62 4.72-3.62 7.7v143.62c0 2.98 1.33 5.8 3.62 7.7 1.81 1.5 4.07 2.3 6.38 2.3.62 0 1.24-.05 1.86-.17l201.9-38.11-25.29 246.25h-30.5c-5.53 0-10 4.47-10 10v15.76c-4.4-1.14-9.54-1.85-15.67-1.85-18.33 0-28.21 6.56-36.15 11.84-7.15 4.74-12.79 8.49-25.09 8.49-12.29 0-17.93-3.75-25.08-8.49-7.94-5.28-17.82-11.84-36.15-11.84-5.52 0-10 4.48-10 10v76.91c0 5.52 4.48 10 10 10h489.9c5.52 0 10-4.48 10-10v-76.91c0-5.52-4.48-10-10-10-18.33 0-28.21 6.56-36.15 11.83-7.15 4.75-12.8 8.5-25.09 8.5-12.3 0-17.94-3.75-25.09-8.5-7.94-5.27-17.83-11.83-36.15-11.83-6.13 0-11.26.71-15.66 1.85v-15.76c0-5.53-4.48-10-10-10h-30l-23-246.31 199.36 38.16c.63.12 1.25.18 1.88.18zm-351.86 308.79h-128.14v-55.85c6.05 1.44 10.22 4.2 15.09 7.44 7.94 5.27 17.82 11.83 36.14 11.83 18.33 0 28.21-6.56 36.15-11.83 7.15-4.75 12.8-8.5 25.09-8.5 6.74 0 11.51 1.13 15.67 2.99zm213.62-53.94c4.16-1.84 8.92-2.97 15.66-2.97 12.29 0 17.94 3.75 25.08 8.5 7.95 5.27 17.83 11.83 36.16 11.83 18.32 0 28.21-6.56 36.15-11.83 4.87-3.23 9.04-6 15.09-7.44v55.85h-128.14zm-126.51-315.5v-42.32h42.31v42.32zm.26-79.79c0-11.39 9.27-20.67 20.67-20.67h.68c11.4 0 20.68 9.28 20.68 20.67v17.47h-42.03zm-215.34 118.38v-119.5l195.08 36.82v45.86zm321.59 250.03v80.82h-173.62v-80.82zm-40.08-20h-36.73v-11.13c0-5.52-4.48-10-10-10s-10 4.48-10 10v11.13h-36.21l25.53-248.62h44.19zm188.32-230.06-192.44-36.84v-45.76l192.44-36.84z" fill="#052a75"/></g></g></g></g></g><g/><g/><g/><g/><g/><g/><g/><g/><g/><g/><g/><g/><g/><g/><g/></svg>