<svg height="512pt" viewBox="0 0 512 512.00077" width="512pt" xmlns="http://www.w3.org/2000/svg"><path d="m375.980469 461.972656v38.757813c-17.636719-4.347657-30.117188-18.757813-49.996094-18.757813-23.429687 0-36.566406 20-59.996094 20-23.429687 0-36.570312-20-59.996093-20-19.878907 0-32.359376 14.410156-50 18.757813v-38.757813c0-11.046875 8.953124-19.996094 20-19.996094h179.992187c11.046875 0 19.996094 8.949219 19.996094 19.996094zm0 0" fill="#7c8388"/><path d="m345.984375 149.992188c11.046875 0 19.996094 8.949218 19.996094 20 0 11.046874-8.949219 19.996093-19.996094 19.996093-15.726563 0-142.378906 0-159.992187 0-11.050782 0-20-8.949219-20-19.996093 0-11.050782 8.949218-20 20-20zm0 0" fill="#ff637b"/><path d="m350.984375 378.980469 5 62.996093h-179.992187l5-62.996093zm0 0" fill="#ff637b"/><path d="m345.984375 315.980469 5 63h-169.992187l5-63zm0 0" fill="#f2f2fc"/><path d="m340.984375 252.984375 5 62.996094h-159.992187l5-62.996094zm0 0" fill="#ff637b"/><path d="m335.984375 189.988281 5 62.996094h-149.992187l5-62.996094zm0 0" fill="#f2f2fc"/><path d="m335.984375 79.996094v10c-39.460937 0-92.183594 0-139.992187 0v-10c0-38.660156 31.335937-69.996094 69.996093-69.996094 38.65625 0 69.996094 31.335938 69.996094 69.996094zm0 0" fill="#ff637b"/><path d="m195.992188 89.996094v59.996094h139.992187v-59.996094c-39.460937 0-92.183594 0-139.992187 0zm0 0" fill="#ffda2d"/><path d="m7.773438 510.550781c19.035156 4.347657 33.707031-1.722656 50.4375-9.730469 9.503906-4.550781 18.480468-8.847656 27.785156-8.847656 9.160156 0 16.59375 4.066406 25.203125 8.773438 9.621093 5.261718 20.523437 11.226562 34.796875 11.226562 13.136718 0 23.324218-4.953125 34.804687-11.230468 8.605469-4.707032 16.039063-8.769532 25.191407-8.769532 9.15625 0 16.59375 4.066406 25.199218 8.773438 9.621094 5.261718 20.527344 11.226562 34.796875 11.226562s25.175781-5.964844 34.796875-11.226562c8.605469-4.707032 16.039063-8.773438 25.199219-8.773438 9.152344 0 16.585937 4.0625 25.191406 8.769532 11.488281 6.28125 21.652344 11.230468 34.804688 11.230468 14.269531 0 25.175781-5.964844 34.796875-11.226562 8.605468-4.707032 16.039062-8.773438 25.199218-8.773438 9.921876 0 20.019532 4.660156 30.710938 9.59375 7.40625 3.414063 15.070312 6.949219 22.886719 8.882813 5.367187 1.328125 10.785156-1.945313 12.109375-7.308594 1.324218-5.359375-1.949219-10.78125-7.308594-12.105469-5.972656-1.476562-12.449219-4.464844-19.3125-7.628906-11.613281-5.359375-24.773438-11.433594-39.085938-11.433594-14.269531 0-25.175781 5.964844-34.796874 11.226563-8.605469 4.707031-16.039063 8.773437-25.199219 8.773437v-30c0-13.273437-8.667969-24.554687-20.640625-28.496094l-18.535156-233.507812c16.164062-.441406 29.175781-13.714844 29.175781-29.976562 0-16.542969-13.457031-30-29.996094-30v-39.996094h10c5.519531 0 9.996094-4.476563 9.996094-10 0-5.523438-4.476563-10-9.996094-10h-10c0-44.109375-35.886719-79.996094-79.996094-79.996094s-79.996093 35.886719-79.996093 79.996094h-10c-5.523438 0-10 4.476562-10 10 0 5.523437 4.476562 10 10 10h10v39.996094c-16.542969 0-30 13.457031-30 30 0 16.261718 13.015624 29.535156 29.175781 29.976562l-18.53125 233.507812c-11.972657 3.941407-20.644531 15.222657-20.644531 28.496094v30c-9.15625 0-16.589844-4.066406-25.199219-8.773437-9.621094-5.261719-20.523438-11.226563-34.796875-11.226563-13.84375 0-25.324219 5.496094-36.421875 10.808594-12.753907 6.105469-23.765625 11.375-37.34375 8.273438-5.375-1.230469-10.746094 2.136718-11.976563 7.519531-1.230468 5.382812 2.136719 10.746093 7.519532 11.976562zm318.972656-310.5625 3.414062 42.996094h-128.34375l3.414063-42.996094zm8.414062 105.996094h-138.34375l3.414063-43h131.515625zm-139.929687 19.996094h141.515625l3.414062 43h-148.34375zm130.753906-185.988281h-20v-39.996094h20zm-79.996094 0v-39.996094h40v39.996094zm20-119.992188c33.082031 0 59.996094 26.914062 59.996094 59.996094h-119.992187c0-33.082032 26.914062-59.996094 59.996093-59.996094zm-59.996093 79.996094h19.996093v39.996094h-19.996093zm-30 69.996094c0-5.515626 4.488281-10 10-10h159.992187c5.511719 0 10 4.484374 10 10 0 5.511718-4.488281 9.996093-10 9.996093h-159.992187c-5.511719 0-10-4.484375-10-9.996093zm0 281.980468h.011718.011719 29.976563c5.523437 0 10-4.476562 10-9.996094 0-5.523437-4.476563-10-10-10h-19.175782l3.414063-43h151.515625l3.414062 43h-59.171875c-5.523437 0-10 4.476563-10 10 0 5.519532 4.476563 9.996094 10 9.996094h69.972657.011718.011719c5.511719 0 9.996094 4.488282 9.996094 10v24.019532c-1.71875-.894532-3.449219-1.835938-5.210938-2.796876-9.621093-5.261718-20.523437-11.222656-34.785156-11.222656-14.269531 0-25.175781 5.964844-34.796875 11.226563-8.605469 4.707031-16.039062 8.773437-25.199219 8.773437-9.160156 0-16.59375-4.066406-25.199219-8.773437-9.621093-5.261719-20.527343-11.226563-34.796874-11.226563-14.261719 0-25.167969 5.960938-34.785157 11.222656-1.761719.960938-3.492187 1.902344-5.214843 2.796876v-24.019532c0-5.511718 4.488281-10 10-10zm0 0"/><path d="m465.976562 129.992188c0-5.523438-4.476562-10-10-10h-39.996093c-5.523438 0-10 4.476562-10 10 0 5.523437 4.476562 10 10 10h39.996093c5.523438 0 10-4.476563 10-10zm0 0"/><path d="m125.996094 129.992188c0-5.523438-4.476563-10-10-10h-39.996094c-5.523438 0-10 4.476562-10 10 0 5.523437 4.476562 10 10 10h39.996094c5.523437 0 10-4.476563 10-10zm0 0"/><path d="m400.878906 63.65625 34.640625-20c4.78125-2.757812 6.421875-8.875 3.660157-13.65625-2.761719-4.785156-8.878907-6.425781-13.660157-3.660156l-34.640625 19.996094c-4.78125 2.761718-6.417968 8.878906-3.65625 13.660156 2.773438 4.804687 8.898438 6.410156 13.65625 3.660156zm0 0"/><path d="m106.457031 233.648438 34.636719-20c4.785156-2.761719 6.421875-8.878907 3.660156-13.660157-2.761718-4.785156-8.875-6.421875-13.660156-3.660156l-34.636719 20c-4.78125 2.761719-6.421875 8.875-3.660156 13.660156 2.777344 4.804688 8.898437 6.40625 13.660156 3.660157zm0 0"/><path d="m390.878906 213.648438 34.640625 20c4.761719 2.746093 10.886719 1.140624 13.660157-3.660157 2.761718-4.785156 1.121093-10.898437-3.660157-13.660156l-34.640625-20c-4.78125-2.757813-10.894531-1.121094-13.65625 3.660156-2.761718 4.78125-1.125 10.898438 3.65625 13.660157zm0 0"/><path d="m141.097656 46.335938-34.640625-19.996094c-4.78125-2.761719-10.898437-1.125-13.660156 3.660156-2.761719 4.78125-1.121094 10.898438 3.660156 13.65625l34.640625 20c4.761719 2.75 10.886719 1.144531 13.65625-3.660156 2.761719-4.78125 1.125-10.898438-3.65625-13.660156zm0 0"/><path d="m255.988281 441.976562c0 5.519532-4.476562 9.996094-10 9.996094-5.523437 0-10-4.476562-10-9.996094 0-5.523437 4.476563-10 10-10 5.523438 0 10 4.476563 10 10zm0 0"/></svg>